<mxfile host="app.diagrams.net" modified="2024-01-13T02:30:38.009Z" agent="Mozilla/5.0 (Windows NT 10.0; Win64; x64) AppleWebKit/537.36 (KHTML, like Gecko) Chrome/120.0.0.0 Safari/537.36" etag="E3MBvwq1AxKX5IPkMb6e" version="22.1.18" type="device">
  <diagram id="C5RBs43oDa-KdzZeNtuy" name="Page-1">
    <mxGraphModel dx="1167" dy="1787" grid="1" gridSize="10" guides="1" tooltips="1" connect="1" arrows="1" fold="1" page="1" pageScale="1" pageWidth="827" pageHeight="1169" math="0" shadow="0">
      <root>
        <mxCell id="WIyWlLk6GJQsqaUBKTNV-0" />
        <mxCell id="WIyWlLk6GJQsqaUBKTNV-1" parent="WIyWlLk6GJQsqaUBKTNV-0" />
        <mxCell id="uhzNpv3-JL6pXH79rHXt-29" value="Bird" style="swimlane;fontStyle=1;align=center;verticalAlign=top;childLayout=stackLayout;horizontal=1;startSize=26;horizontalStack=0;resizeParent=1;resizeParentMax=0;resizeLast=0;collapsible=1;marginBottom=0;whiteSpace=wrap;html=1;" parent="WIyWlLk6GJQsqaUBKTNV-1" vertex="1">
          <mxGeometry x="650" y="216" width="260" height="186" as="geometry" />
        </mxCell>
        <mxCell id="sF-ROVwDGq699BUxOLaI-40" value="- string name" style="text;strokeColor=none;fillColor=none;align=left;verticalAlign=top;spacingLeft=4;spacingRight=4;overflow=hidden;rotatable=0;points=[[0,0.5],[1,0.5]];portConstraint=eastwest;whiteSpace=wrap;html=1;" vertex="1" parent="uhzNpv3-JL6pXH79rHXt-29">
          <mxGeometry y="26" width="260" height="26" as="geometry" />
        </mxCell>
        <mxCell id="uhzNpv3-JL6pXH79rHXt-31" value="" style="line;strokeWidth=1;fillColor=none;align=left;verticalAlign=middle;spacingTop=-1;spacingLeft=3;spacingRight=3;rotatable=0;labelPosition=right;points=[];portConstraint=eastwest;strokeColor=inherit;" parent="uhzNpv3-JL6pXH79rHXt-29" vertex="1">
          <mxGeometry y="52" width="260" height="4" as="geometry" />
        </mxCell>
        <mxCell id="uhzNpv3-JL6pXH79rHXt-73" value="+abstract&amp;nbsp;fly: void" style="text;strokeColor=none;fillColor=none;align=left;verticalAlign=top;spacingLeft=4;spacingRight=4;overflow=hidden;rotatable=0;points=[[0,0.5],[1,0.5]];portConstraint=eastwest;whiteSpace=wrap;html=1;" parent="uhzNpv3-JL6pXH79rHXt-29" vertex="1">
          <mxGeometry y="56" width="260" height="26" as="geometry" />
        </mxCell>
        <mxCell id="sF-ROVwDGq699BUxOLaI-41" value="+abstract tweet: void" style="text;strokeColor=none;fillColor=none;align=left;verticalAlign=top;spacingLeft=4;spacingRight=4;overflow=hidden;rotatable=0;points=[[0,0.5],[1,0.5]];portConstraint=eastwest;whiteSpace=wrap;html=1;" vertex="1" parent="uhzNpv3-JL6pXH79rHXt-29">
          <mxGeometry y="82" width="260" height="26" as="geometry" />
        </mxCell>
        <mxCell id="sF-ROVwDGq699BUxOLaI-42" value="+abstract doCimmand(int) : void" style="text;strokeColor=none;fillColor=none;align=left;verticalAlign=top;spacingLeft=4;spacingRight=4;overflow=hidden;rotatable=0;points=[[0,0.5],[1,0.5]];portConstraint=eastwest;whiteSpace=wrap;html=1;" vertex="1" parent="uhzNpv3-JL6pXH79rHXt-29">
          <mxGeometry y="108" width="260" height="26" as="geometry" />
        </mxCell>
        <mxCell id="sF-ROVwDGq699BUxOLaI-43" value="+ abstract doCommand(Command*) : void" style="text;strokeColor=none;fillColor=none;align=left;verticalAlign=top;spacingLeft=4;spacingRight=4;overflow=hidden;rotatable=0;points=[[0,0.5],[1,0.5]];portConstraint=eastwest;whiteSpace=wrap;html=1;" vertex="1" parent="uhzNpv3-JL6pXH79rHXt-29">
          <mxGeometry y="134" width="260" height="26" as="geometry" />
        </mxCell>
        <mxCell id="uhzNpv3-JL6pXH79rHXt-32" value="+abstract&amp;nbsp;teachCommand(Command*) : void" style="text;strokeColor=none;fillColor=none;align=left;verticalAlign=top;spacingLeft=4;spacingRight=4;overflow=hidden;rotatable=0;points=[[0,0.5],[1,0.5]];portConstraint=eastwest;whiteSpace=wrap;html=1;" parent="uhzNpv3-JL6pXH79rHXt-29" vertex="1">
          <mxGeometry y="160" width="260" height="26" as="geometry" />
        </mxCell>
        <mxCell id="uhzNpv3-JL6pXH79rHXt-46" value="Aviary" style="swimlane;fontStyle=1;align=center;verticalAlign=top;childLayout=stackLayout;horizontal=1;startSize=26;horizontalStack=0;resizeParent=1;resizeParentMax=0;resizeLast=0;collapsible=1;marginBottom=0;whiteSpace=wrap;html=1;" parent="WIyWlLk6GJQsqaUBKTNV-1" vertex="1">
          <mxGeometry x="160" y="180" width="190" height="226" as="geometry" />
        </mxCell>
        <mxCell id="uhzNpv3-JL6pXH79rHXt-50" value="- max: int" style="text;strokeColor=none;fillColor=none;align=left;verticalAlign=top;spacingLeft=4;spacingRight=4;overflow=hidden;rotatable=0;points=[[0,0.5],[1,0.5]];portConstraint=eastwest;whiteSpace=wrap;html=1;" parent="uhzNpv3-JL6pXH79rHXt-46" vertex="1">
          <mxGeometry y="26" width="190" height="26" as="geometry" />
        </mxCell>
        <mxCell id="uhzNpv3-JL6pXH79rHXt-52" value="- birdCounter: int" style="text;strokeColor=none;fillColor=none;align=left;verticalAlign=top;spacingLeft=4;spacingRight=4;overflow=hidden;rotatable=0;points=[[0,0.5],[1,0.5]];portConstraint=eastwest;whiteSpace=wrap;html=1;" parent="uhzNpv3-JL6pXH79rHXt-46" vertex="1">
          <mxGeometry y="52" width="190" height="28" as="geometry" />
        </mxCell>
        <mxCell id="sF-ROVwDGq699BUxOLaI-46" value="-&amp;nbsp;vector&amp;lt;Bird*&amp;gt; mass" style="text;strokeColor=none;fillColor=none;align=left;verticalAlign=top;spacingLeft=4;spacingRight=4;overflow=hidden;rotatable=0;points=[[0,0.5],[1,0.5]];portConstraint=eastwest;whiteSpace=wrap;html=1;" vertex="1" parent="uhzNpv3-JL6pXH79rHXt-46">
          <mxGeometry y="80" width="190" height="28" as="geometry" />
        </mxCell>
        <mxCell id="uhzNpv3-JL6pXH79rHXt-48" value="" style="line;strokeWidth=1;fillColor=none;align=left;verticalAlign=middle;spacingTop=-1;spacingLeft=3;spacingRight=3;rotatable=0;labelPosition=right;points=[];portConstraint=eastwest;strokeColor=inherit;" parent="uhzNpv3-JL6pXH79rHXt-46" vertex="1">
          <mxGeometry y="108" width="190" height="8" as="geometry" />
        </mxCell>
        <mxCell id="uhzNpv3-JL6pXH79rHXt-74" value="+&amp;nbsp;throwIntoTheÐ¡age(Bird) : void" style="text;strokeColor=none;fillColor=none;align=left;verticalAlign=top;spacingLeft=4;spacingRight=4;overflow=hidden;rotatable=0;points=[[0,0.5],[1,0.5]];portConstraint=eastwest;whiteSpace=wrap;html=1;" parent="uhzNpv3-JL6pXH79rHXt-46" vertex="1">
          <mxGeometry y="116" width="190" height="32" as="geometry" />
        </mxCell>
        <mxCell id="sF-ROVwDGq699BUxOLaI-32" value="+ checkBirds: int" style="text;strokeColor=none;fillColor=none;align=left;verticalAlign=top;spacingLeft=4;spacingRight=4;overflow=hidden;rotatable=0;points=[[0,0.5],[1,0.5]];portConstraint=eastwest;whiteSpace=wrap;html=1;" vertex="1" parent="uhzNpv3-JL6pXH79rHXt-46">
          <mxGeometry y="148" width="190" height="26" as="geometry" />
        </mxCell>
        <mxCell id="uhzNpv3-JL6pXH79rHXt-49" value="+ getBird(): void" style="text;strokeColor=none;fillColor=none;align=left;verticalAlign=top;spacingLeft=4;spacingRight=4;overflow=hidden;rotatable=0;points=[[0,0.5],[1,0.5]];portConstraint=eastwest;whiteSpace=wrap;html=1;" parent="uhzNpv3-JL6pXH79rHXt-46" vertex="1">
          <mxGeometry y="174" width="190" height="26" as="geometry" />
        </mxCell>
        <mxCell id="uhzNpv3-JL6pXH79rHXt-53" value="+&amp;nbsp;releaseBirds: void" style="text;strokeColor=none;fillColor=none;align=left;verticalAlign=top;spacingLeft=4;spacingRight=4;overflow=hidden;rotatable=0;points=[[0,0.5],[1,0.5]];portConstraint=eastwest;whiteSpace=wrap;html=1;" parent="uhzNpv3-JL6pXH79rHXt-46" vertex="1">
          <mxGeometry y="200" width="190" height="26" as="geometry" />
        </mxCell>
        <mxCell id="uhzNpv3-JL6pXH79rHXt-54" value="Pigeon" style="swimlane;fontStyle=1;align=center;verticalAlign=top;childLayout=stackLayout;horizontal=1;startSize=26;horizontalStack=0;resizeParent=1;resizeParentMax=0;resizeLast=0;collapsible=1;marginBottom=0;whiteSpace=wrap;html=1;" parent="WIyWlLk6GJQsqaUBKTNV-1" vertex="1">
          <mxGeometry x="420" y="100" width="180" height="86" as="geometry" />
        </mxCell>
        <mxCell id="sF-ROVwDGq699BUxOLaI-44" value="- int length" style="text;strokeColor=none;fillColor=none;align=left;verticalAlign=top;spacingLeft=4;spacingRight=4;overflow=hidden;rotatable=0;points=[[0,0.5],[1,0.5]];portConstraint=eastwest;whiteSpace=wrap;html=1;" vertex="1" parent="uhzNpv3-JL6pXH79rHXt-54">
          <mxGeometry y="26" width="180" height="26" as="geometry" />
        </mxCell>
        <mxCell id="sF-ROVwDGq699BUxOLaI-45" value="-&amp;nbsp;vector&amp;lt;Command*&amp;gt; mass" style="text;strokeColor=none;fillColor=none;align=left;verticalAlign=top;spacingLeft=4;spacingRight=4;overflow=hidden;rotatable=0;points=[[0,0.5],[1,0.5]];portConstraint=eastwest;whiteSpace=wrap;html=1;" vertex="1" parent="uhzNpv3-JL6pXH79rHXt-54">
          <mxGeometry y="52" width="180" height="26" as="geometry" />
        </mxCell>
        <mxCell id="uhzNpv3-JL6pXH79rHXt-56" value="" style="line;strokeWidth=1;fillColor=none;align=left;verticalAlign=middle;spacingTop=-1;spacingLeft=3;spacingRight=3;rotatable=0;labelPosition=right;points=[];portConstraint=eastwest;strokeColor=inherit;" parent="uhzNpv3-JL6pXH79rHXt-54" vertex="1">
          <mxGeometry y="78" width="180" height="8" as="geometry" />
        </mxCell>
        <mxCell id="sF-ROVwDGq699BUxOLaI-15" value="&amp;lt;interface&amp;gt; Command" style="swimlane;fontStyle=1;align=center;verticalAlign=top;childLayout=stackLayout;horizontal=1;startSize=26;horizontalStack=0;resizeParent=1;resizeParentMax=0;resizeLast=0;collapsible=1;marginBottom=0;whiteSpace=wrap;html=1;" vertex="1" parent="WIyWlLk6GJQsqaUBKTNV-1">
          <mxGeometry x="450" y="-170" width="160" height="60" as="geometry" />
        </mxCell>
        <mxCell id="sF-ROVwDGq699BUxOLaI-17" value="" style="line;strokeWidth=1;fillColor=none;align=left;verticalAlign=middle;spacingTop=-1;spacingLeft=3;spacingRight=3;rotatable=0;labelPosition=right;points=[];portConstraint=eastwest;strokeColor=inherit;" vertex="1" parent="sF-ROVwDGq699BUxOLaI-15">
          <mxGeometry y="26" width="160" height="8" as="geometry" />
        </mxCell>
        <mxCell id="sF-ROVwDGq699BUxOLaI-18" value="+ execute() : void" style="text;strokeColor=none;fillColor=none;align=left;verticalAlign=top;spacingLeft=4;spacingRight=4;overflow=hidden;rotatable=0;points=[[0,0.5],[1,0.5]];portConstraint=eastwest;whiteSpace=wrap;html=1;" vertex="1" parent="sF-ROVwDGq699BUxOLaI-15">
          <mxGeometry y="34" width="160" height="26" as="geometry" />
        </mxCell>
        <mxCell id="sF-ROVwDGq699BUxOLaI-19" value="TalkCommand" style="swimlane;fontStyle=1;align=center;verticalAlign=top;childLayout=stackLayout;horizontal=1;startSize=26;horizontalStack=0;resizeParent=1;resizeParentMax=0;resizeLast=0;collapsible=1;marginBottom=0;whiteSpace=wrap;html=1;" vertex="1" parent="WIyWlLk6GJQsqaUBKTNV-1">
          <mxGeometry x="240" y="-30" width="190" height="86" as="geometry" />
        </mxCell>
        <mxCell id="sF-ROVwDGq699BUxOLaI-20" value="- string phrase" style="text;strokeColor=none;fillColor=none;align=left;verticalAlign=top;spacingLeft=4;spacingRight=4;overflow=hidden;rotatable=0;points=[[0,0.5],[1,0.5]];portConstraint=eastwest;whiteSpace=wrap;html=1;" vertex="1" parent="sF-ROVwDGq699BUxOLaI-19">
          <mxGeometry y="26" width="190" height="26" as="geometry" />
        </mxCell>
        <mxCell id="sF-ROVwDGq699BUxOLaI-21" value="" style="line;strokeWidth=1;fillColor=none;align=left;verticalAlign=middle;spacingTop=-1;spacingLeft=3;spacingRight=3;rotatable=0;labelPosition=right;points=[];portConstraint=eastwest;strokeColor=inherit;" vertex="1" parent="sF-ROVwDGq699BUxOLaI-19">
          <mxGeometry y="52" width="190" height="8" as="geometry" />
        </mxCell>
        <mxCell id="sF-ROVwDGq699BUxOLaI-22" value="+&amp;nbsp;changePhrase(string): void" style="text;strokeColor=none;fillColor=none;align=left;verticalAlign=top;spacingLeft=4;spacingRight=4;overflow=hidden;rotatable=0;points=[[0,0.5],[1,0.5]];portConstraint=eastwest;whiteSpace=wrap;html=1;" vertex="1" parent="sF-ROVwDGq699BUxOLaI-19">
          <mxGeometry y="60" width="190" height="26" as="geometry" />
        </mxCell>
        <mxCell id="sF-ROVwDGq699BUxOLaI-23" value="EatCommand" style="swimlane;fontStyle=1;align=center;verticalAlign=top;childLayout=stackLayout;horizontal=1;startSize=26;horizontalStack=0;resizeParent=1;resizeParentMax=0;resizeLast=0;collapsible=1;marginBottom=0;whiteSpace=wrap;html=1;" vertex="1" parent="WIyWlLk6GJQsqaUBKTNV-1">
          <mxGeometry x="620" y="-82" width="180" height="112" as="geometry" />
        </mxCell>
        <mxCell id="sF-ROVwDGq699BUxOLaI-37" value="- string product&amp;nbsp;" style="text;strokeColor=none;fillColor=none;align=left;verticalAlign=top;spacingLeft=4;spacingRight=4;overflow=hidden;rotatable=0;points=[[0,0.5],[1,0.5]];portConstraint=eastwest;whiteSpace=wrap;html=1;" vertex="1" parent="sF-ROVwDGq699BUxOLaI-23">
          <mxGeometry y="26" width="180" height="26" as="geometry" />
        </mxCell>
        <mxCell id="sF-ROVwDGq699BUxOLaI-25" value="" style="line;strokeWidth=1;fillColor=none;align=left;verticalAlign=middle;spacingTop=-1;spacingLeft=3;spacingRight=3;rotatable=0;labelPosition=right;points=[];portConstraint=eastwest;strokeColor=inherit;" vertex="1" parent="sF-ROVwDGq699BUxOLaI-23">
          <mxGeometry y="52" width="180" height="8" as="geometry" />
        </mxCell>
        <mxCell id="sF-ROVwDGq699BUxOLaI-36" value="+changeProduct(string): void" style="text;strokeColor=none;fillColor=none;align=left;verticalAlign=top;spacingLeft=4;spacingRight=4;overflow=hidden;rotatable=0;points=[[0,0.5],[1,0.5]];portConstraint=eastwest;whiteSpace=wrap;html=1;" vertex="1" parent="sF-ROVwDGq699BUxOLaI-23">
          <mxGeometry y="60" width="180" height="26" as="geometry" />
        </mxCell>
        <mxCell id="sF-ROVwDGq699BUxOLaI-38" value="+ execute() : void" style="text;strokeColor=none;fillColor=none;align=left;verticalAlign=top;spacingLeft=4;spacingRight=4;overflow=hidden;rotatable=0;points=[[0,0.5],[1,0.5]];portConstraint=eastwest;whiteSpace=wrap;html=1;" vertex="1" parent="sF-ROVwDGq699BUxOLaI-23">
          <mxGeometry y="86" width="180" height="26" as="geometry" />
        </mxCell>
        <mxCell id="sF-ROVwDGq699BUxOLaI-28" value="" style="endArrow=block;dashed=1;endFill=0;endSize=12;html=1;rounded=0;entryX=0.5;entryY=0;entryDx=0;entryDy=0;exitX=0;exitY=0.5;exitDx=0;exitDy=0;" edge="1" parent="WIyWlLk6GJQsqaUBKTNV-1" target="sF-ROVwDGq699BUxOLaI-19">
          <mxGeometry width="160" relative="1" as="geometry">
            <mxPoint x="450" y="-131" as="sourcePoint" />
            <mxPoint x="500" y="-130" as="targetPoint" />
          </mxGeometry>
        </mxCell>
        <mxCell id="sF-ROVwDGq699BUxOLaI-29" value="" style="endArrow=block;dashed=1;endFill=0;endSize=12;html=1;rounded=0;entryX=0.5;entryY=0;entryDx=0;entryDy=0;exitX=1;exitY=0.5;exitDx=0;exitDy=0;" edge="1" parent="WIyWlLk6GJQsqaUBKTNV-1" target="sF-ROVwDGq699BUxOLaI-23">
          <mxGeometry width="160" relative="1" as="geometry">
            <mxPoint x="610" y="-131" as="sourcePoint" />
            <mxPoint x="730" y="-50" as="targetPoint" />
          </mxGeometry>
        </mxCell>
        <mxCell id="sF-ROVwDGq699BUxOLaI-30" value="Use" style="endArrow=open;endSize=12;dashed=1;html=1;rounded=0;exitX=0.5;exitY=0;exitDx=0;exitDy=0;entryX=0.447;entryY=1.192;entryDx=0;entryDy=0;entryPerimeter=0;" edge="1" parent="WIyWlLk6GJQsqaUBKTNV-1" source="uhzNpv3-JL6pXH79rHXt-54" target="sF-ROVwDGq699BUxOLaI-22">
          <mxGeometry width="160" relative="1" as="geometry">
            <mxPoint x="450" y="70" as="sourcePoint" />
            <mxPoint x="610" y="70" as="targetPoint" />
          </mxGeometry>
        </mxCell>
        <mxCell id="sF-ROVwDGq699BUxOLaI-34" value="Use" style="endArrow=open;endSize=12;dashed=1;html=1;rounded=0;exitX=0.5;exitY=0;exitDx=0;exitDy=0;entryX=0.5;entryY=1;entryDx=0;entryDy=0;" edge="1" parent="WIyWlLk6GJQsqaUBKTNV-1" source="uhzNpv3-JL6pXH79rHXt-54" target="sF-ROVwDGq699BUxOLaI-23">
          <mxGeometry width="160" relative="1" as="geometry">
            <mxPoint x="550" y="60" as="sourcePoint" />
            <mxPoint x="710" y="60" as="targetPoint" />
          </mxGeometry>
        </mxCell>
        <mxCell id="sF-ROVwDGq699BUxOLaI-35" value="" style="endArrow=block;dashed=1;endFill=0;endSize=12;html=1;rounded=0;exitX=-0.031;exitY=0.014;exitDx=0;exitDy=0;exitPerimeter=0;entryX=1;entryY=0.5;entryDx=0;entryDy=0;" edge="1" parent="WIyWlLk6GJQsqaUBKTNV-1" source="uhzNpv3-JL6pXH79rHXt-32">
          <mxGeometry width="160" relative="1" as="geometry">
            <mxPoint x="530" y="270" as="sourcePoint" />
            <mxPoint x="599.9999999999998" y="206" as="targetPoint" />
          </mxGeometry>
        </mxCell>
        <mxCell id="sF-ROVwDGq699BUxOLaI-47" value="" style="endArrow=block;startArrow=block;endFill=1;startFill=1;html=1;rounded=0;exitX=1;exitY=0.5;exitDx=0;exitDy=0;" edge="1" parent="WIyWlLk6GJQsqaUBKTNV-1" source="uhzNpv3-JL6pXH79rHXt-74">
          <mxGeometry width="160" relative="1" as="geometry">
            <mxPoint x="414" y="280" as="sourcePoint" />
            <mxPoint x="640" y="312" as="targetPoint" />
          </mxGeometry>
        </mxCell>
      </root>
    </mxGraphModel>
  </diagram>
</mxfile>
